<?xml version="1.0" encoding="UTF-8"?>
<svg width="115px" height="25px" viewBox="0 0 115 25" version="1.1" xmlns="http://www.w3.org/2000/svg" xmlns:xlink="http://www.w3.org/1999/xlink">
    <!-- Generator: sketchtool 57.1 (101010) - https://sketch.com -->
    <title>CA306A3A-5B3B-41BF-80C3-9539DA2E42AD</title>
    <desc>Created with sketchtool.</desc>
    <g id="METEACOLHER" stroke="none" stroke-width="1" fill="none" fill-rule="evenodd">
        <g id="VPTSVD.1_Entrada_01" transform="translate(-663.000000, -2005.000000)" fill="#FFFFFF" fill-rule="nonzero">
            <g id="main/footer" transform="translate(0.000000, 1757.000000)">
                <g id="Group-12">
                    <g id="Group-10" transform="translate(663.000000, 248.000000)">
                        <g id="creativecommons.org_licenses_by-nc-sa4.0">
                            <g id="nc" transform="translate(59.615385, 0.000000)">
                                <path d="M12.4776923,0.192307692 C15.9353846,0.192307692 18.8511538,1.37884615 21.225,3.75230769 C23.6126923,6.12615385 24.8076923,9.04192308 24.8076923,12.5 C24.8076923,15.9584615 23.6353846,18.8369231 21.2903846,21.1376923 C18.8,23.5846154 15.8619231,24.8076923 12.4776923,24.8076923 C9.13692308,24.8076923 6.25076923,23.5915385 3.81884615,21.1596154 C1.40153846,18.7415385 0.192307692,15.8557692 0.192307692,12.5 C0.192307692,9.13 1.40153846,6.21423077 3.81884615,3.75269231 C6.19230769,1.37923077 9.07846154,0.192307692 12.4776923,0.192307692 Z M2.96153846,9.18153846 C2.59538462,10.1923077 2.41192308,11.2988462 2.41192308,12.5003846 C2.41192308,15.2257692 3.40807692,17.585 5.40038462,19.5773077 C7.40769231,21.5557692 9.78153846,22.5446154 12.5211538,22.5446154 C15.2907692,22.5446154 17.6784615,21.5415385 19.6865385,19.5334615 C20.4046154,18.845 20.9680769,18.1269231 21.3780769,17.3788462 L16.7411538,15.3130769 C16.5792308,16.09 16.1876923,16.7234615 15.5653846,17.2138462 C14.9415385,17.7046154 14.2057692,17.9873077 13.3561538,18.06 L13.3561538,19.9503846 L11.9276923,19.9503846 L11.9276923,18.06 C10.565,18.0461538 9.31923077,17.5553846 8.19153846,16.5880769 L9.88384615,14.8738462 C10.6892308,15.6207692 11.6053846,15.9942308 12.6311538,15.9942308 C13.0557692,15.9942308 13.4188462,15.8996154 13.7196154,15.7084615 C14.0196154,15.5184615 14.1703846,15.2038462 14.1703846,14.7634615 C14.1703846,14.4553846 14.06,14.2065385 13.8403846,14.0161538 L12.6538462,13.5103846 L11.2034615,12.8507692 L9.24730769,11.9934615 L2.96153846,9.18153846 Z M12.5219231,2.39 C9.72346154,2.39 7.35730769,3.37884615 5.42307692,5.35692308 C4.93923077,5.84076923 4.485,6.39 4.06038462,7.00576923 L8.76384615,9.11538462 C8.96884615,8.47076923 9.35692308,7.95423077 9.92884615,7.56615385 C10.4996154,7.17807692 11.1665385,6.96192308 11.9288462,6.91769231 L11.9288462,5.02730769 L13.3576923,5.02730769 L13.3576923,6.91769231 C14.4861538,6.97653846 15.5115385,7.35730769 16.4346154,8.06038462 L14.83,9.70884615 C14.1403846,9.22538462 13.4380769,8.98384615 12.72,8.98384615 C12.3388462,8.98384615 11.9984615,9.05730769 11.6984615,9.20346154 C11.3980769,9.35 11.2476923,9.59923077 11.2476923,9.95076923 C11.2476923,10.0534615 11.2842308,10.1557692 11.3573077,10.2584615 L12.9176923,10.9623077 L13.9946154,11.4457692 L15.9730769,12.3246154 L22.2796154,15.1376923 C22.4853846,14.2730769 22.5876923,13.3942308 22.5876923,12.5003846 C22.5876923,9.67230769 21.6061538,7.29153846 19.6430769,5.35692308 C17.6942308,3.37884615 15.3196154,2.39 12.5219231,2.39 Z" id="Shape"></path>
                            </g>
                            <g id="sa" transform="translate(89.615385, 0.000000)">
                                <path d="M12.4780769,0.192307692 C15.9207692,0.192307692 18.8361538,1.38653846 21.225,3.775 C23.6126923,6.14884615 24.8076923,9.05692308 24.8076923,12.5 C24.8076923,15.9438462 23.635,18.8296154 21.2903846,21.1592308 C18.8146154,23.5915385 15.8765385,24.8076923 12.4780769,24.8076923 C9.15153846,24.8076923 6.26538462,23.5988462 3.81884615,21.1811538 C1.40153846,18.7638462 0.192307692,15.8707692 0.192307692,12.5003846 C0.192307692,9.14538462 1.40153846,6.23692308 3.81884615,3.77538462 C6.20692308,1.38653846 9.09346154,0.192307692 12.4780769,0.192307692 Z M12.5219231,2.41230769 C9.72346154,2.41230769 7.35730769,3.40153846 5.42307692,5.37961538 C3.41538462,7.41653846 2.41192308,9.79 2.41192308,12.5 C2.41192308,15.2403846 3.40807692,17.5988462 5.40038462,19.5769231 C7.39307692,21.57 9.76653846,22.5657692 12.5211538,22.5657692 C15.2607692,22.5657692 17.6496154,21.5623077 19.6861538,19.555 C21.6203846,17.6796154 22.5873077,15.3280769 22.5873077,12.5 C22.5873077,9.68730769 21.6053846,7.31346154 19.6426923,5.37961538 C17.6938462,3.40076923 15.32,2.41230769 12.5219231,2.41230769 Z M7.02730769,10.7634615 C7.26153846,9.25423077 7.86923077,8.08576923 8.85115385,7.25807692 C9.83269231,6.43038462 11.0265385,6.01653846 12.4334615,6.01653846 C14.3669231,6.01653846 15.9061538,6.63961538 17.0488462,7.88423077 C18.1915385,9.12961538 18.7630769,10.7269231 18.7630769,12.6753846 C18.7630769,14.5657692 18.1696154,16.1369231 16.9834615,17.3892308 C15.7957692,18.6415385 14.2580769,19.2684615 12.3673077,19.2684615 C10.9753846,19.2684615 9.77384615,18.8511538 8.76307692,18.0157692 C7.75192308,17.1803846 7.14423077,15.9938462 6.93884615,14.4553846 L10.0384615,14.4553846 C10.1115385,15.95 11.0126923,16.6973077 12.7419231,16.6973077 C13.6057692,16.6973077 14.3023077,16.3234615 14.8296154,15.5765385 C15.3576923,14.8296154 15.6215385,13.8326923 15.6215385,12.5876923 C15.6215385,11.2834615 15.3796154,10.2911538 14.8965385,9.60961538 C14.4126923,8.92846154 13.7173077,8.58769231 12.8080769,8.58769231 C11.1665385,8.58769231 10.2438462,9.31269231 10.0388462,10.7630769 L10.94,10.7630769 L8.50076923,13.2026923 L6.06115385,10.7630769 L7.02730769,10.7634615 L7.02730769,10.7634615 Z" id="Shape"></path>
                            </g>
                            <g id="by" transform="translate(29.615385, 0.000000)">
                                <path d="M12.4780769,0.192307692 C15.935,0.192307692 18.8511538,1.37884615 21.225,3.75269231 C23.6126923,6.14115385 24.8076923,9.05692308 24.8076923,12.5 C24.8076923,15.9580769 23.635,18.8369231 21.2903846,21.1369231 C18.7996154,23.5842308 15.8623077,24.8076923 12.4780769,24.8076923 C9.15153846,24.8076923 6.26538462,23.5984615 3.81884615,21.1807692 C1.40153846,18.7630769 0.192307692,15.87 0.192307692,12.5 C0.192307692,9.13038462 1.40153846,6.21461538 3.81884615,3.75307692 C6.19269231,1.37884615 9.07846154,0.192307692 12.4780769,0.192307692 Z M12.5219231,2.41230769 C9.72346154,2.41230769 7.35730769,3.39423077 5.42307692,5.35730769 C3.41538462,7.40884615 2.41192308,9.79 2.41192308,12.5003846 C2.41192308,15.2257692 3.40807692,17.585 5.40038462,19.5765385 C7.39307692,21.5696154 9.76653846,22.5653846 12.5211538,22.5653846 C15.2607692,22.5653846 17.6496154,21.5626923 19.6861538,19.5546154 C21.6203846,17.6938462 22.5873077,15.3423077 22.5873077,12.4996154 C22.5873077,9.70115385 21.6053846,7.32076923 19.6426923,5.35692308 C17.6796154,3.39384615 15.3057692,2.41230769 12.5219231,2.41230769 Z M15.8188462,9.445 L15.8188462,14.4776923 L14.4126923,14.4776923 L14.4126923,20.4553846 L10.5880769,20.4553846 L10.5880769,14.4780769 L9.18192308,14.4780769 L9.18192308,9.445 C9.18192308,9.225 9.25884615,9.03846154 9.41230769,8.88461538 C9.56653846,8.73115385 9.75346154,8.65384615 9.97269231,8.65384615 L15.0280769,8.65384615 C15.2330769,8.65384615 15.4165385,8.73076923 15.5773077,8.88461538 C15.7376923,9.03846154 15.8188462,9.22538462 15.8188462,9.445 Z M10.7853846,6.28038462 C10.7853846,5.12346154 11.3565385,4.54423077 12.5,4.54423077 C13.6434615,4.54423077 14.2142308,5.12269231 14.2142308,6.28038462 C14.2142308,7.42307692 13.6426923,7.99461538 12.5,7.99461538 C11.3573077,7.99461538 10.7853846,7.42307692 10.7853846,6.28038462 Z" id="Shape"></path>
                            </g>
                            <path d="M12.285,0.384615385 C15.7276923,0.384615385 18.6588462,1.58653846 21.0761538,3.98923077 C22.2330769,5.14653846 23.1126923,6.46923077 23.7134615,7.95615385 C24.3138462,9.44346154 24.615,11.0219231 24.615,12.6923077 C24.615,14.3773077 24.3176923,15.9561538 23.725,17.4280769 C23.1315385,18.9003846 22.2557692,20.2011538 21.0988462,21.3292308 C19.8976923,22.5157692 18.535,23.4246154 17.0107692,24.0546154 C15.4873077,24.6846154 13.9119231,24.9996154 12.2857692,24.9996154 C10.6596154,24.9996154 9.10269231,24.6888462 7.61538462,24.0653846 C6.12846154,23.4430769 4.795,22.5419231 3.61538462,21.3626923 C2.43576923,20.1834615 1.53846154,18.8534615 0.923076923,17.3734615 C0.307692308,15.8934615 1.0658141e-14,14.3334615 1.0658141e-14,12.6923077 C1.0658141e-14,11.0657692 0.311153846,9.50192308 0.933846154,8 C1.55653846,6.49807692 2.46153846,5.15384615 3.64807692,3.96692308 C5.99230769,1.57923077 8.87115385,0.384615385 12.285,0.384615385 Z M12.3296154,2.60461538 C9.51653846,2.60461538 7.15,3.58653846 5.23038462,5.54961538 C4.26307692,6.53153846 3.51961538,7.63384615 2.99961538,8.85730769 C2.47884615,10.0807692 2.21923077,11.3592308 2.21923077,12.6926923 C2.21923077,14.0115385 2.47884615,15.2826923 2.99961538,16.5053846 C3.52,17.7296154 4.26307692,18.8211538 5.23038462,19.7807692 C6.19730769,20.7407692 7.28846154,21.4726923 8.50538462,21.9788462 C9.72115385,22.4842308 10.9961538,22.7369231 12.3296154,22.7369231 C13.6480769,22.7369231 14.9257692,22.4811538 16.1653846,21.9680769 C17.4034615,21.4546154 18.5196154,20.7153846 19.5165385,19.7484615 C21.4357692,17.8730769 22.395,15.5215385 22.395,12.6930769 C22.395,11.3303846 22.1457692,10.0411538 21.6476923,8.825 C21.1503846,7.60884615 20.4246154,6.525 19.4730769,5.57192308 C17.4938462,3.59384615 15.1134615,2.60461538 12.3296154,2.60461538 Z M12.1753846,10.6488462 L10.5265385,11.5061538 C10.3503846,11.1403846 10.1346154,10.8834615 9.87846154,10.7369231 C9.62192308,10.5907692 9.38384615,10.5173077 9.16384615,10.5173077 C8.06538462,10.5173077 7.51538462,11.2423077 7.51538462,12.6930769 C7.51538462,13.3523077 7.65461538,13.8792308 7.93269231,14.275 C8.21115385,14.6707692 8.62153846,14.8688462 9.16384615,14.8688462 C9.88192308,14.8688462 10.3873077,14.5169231 10.6807692,13.8138462 L12.1969231,14.5830769 C11.8746154,15.1842308 11.4276923,15.6565385 10.8561538,16.0007692 C10.2853846,16.3453846 9.655,16.5173077 8.96615385,16.5173077 C7.86730769,16.5173077 6.98038462,16.1807692 6.30653846,15.5061538 C5.63269231,14.8323077 5.29576923,13.8946154 5.29576923,12.6934615 C5.29576923,11.5211538 5.63653846,10.5911538 6.31769231,9.90230769 C6.99884615,9.21384615 7.85961538,8.86923002 8.90038462,8.86923002 C10.4246154,8.86846154 11.5157692,9.46192308 12.1753846,10.6488462 Z M19.2742308,10.6488462 L17.6476923,11.5061538 C17.4719231,11.1403846 17.2553846,10.8834615 16.9992308,10.7369231 C16.7423077,10.5907692 16.4965385,10.5173077 16.2630769,10.5173077 C15.1642308,10.5173077 14.6142308,11.2423077 14.6142308,12.6930769 C14.6142308,13.3523077 14.7538462,13.8792308 15.0319231,14.275 C15.31,14.6707692 15.72,14.8688462 16.2630769,14.8688462 C16.9803846,14.8688462 17.4861538,14.5169231 17.7788462,13.8138462 L19.3173077,14.5830769 C18.9807692,15.1842308 18.5261538,15.6565385 17.9553846,16.0007692 C17.3838462,16.3453846 16.7611538,16.5173077 16.0873077,16.5173077 C14.9734615,16.5173077 14.0838462,16.1807692 13.4176923,15.5061538 C12.75,14.8323077 12.4169231,13.8946154 12.4169231,12.6934615 C12.4169231,11.5211538 12.7573077,10.5911538 13.4392308,9.90230769 C14.12,9.21384615 14.9807692,8.86923002 16.0211538,8.86923002 C17.545,8.86846154 18.63,9.46192308 19.2742308,10.6488462 Z" id="Shape"></path>
                        </g>
                    </g>
                </g>
            </g>
        </g>
    </g>
</svg>