<?xml version="1.0" encoding="UTF-8"?>
<svg width="200px" height="61px" viewBox="0 0 200 61" version="1.1" xmlns="http://www.w3.org/2000/svg" xmlns:xlink="http://www.w3.org/1999/xlink">
    <!-- Generator: sketchtool 57.1 (101010) - https://sketch.com -->
    <title>AAB70C4B-0DB3-4E52-94FA-F0A5C807A6A4</title>
    <desc>Created with sketchtool.</desc>
    <g id="METEACOLHER" stroke="none" stroke-width="1" fill="none" fill-rule="evenodd">
        <g id="VPTSVD.1_Entrada_01" transform="translate(-620.000000, -1888.000000)" fill="#FFFFFF">
            <g id="main/footer" transform="translate(0.000000, 1757.000000)">
                <g id="Group-12">
                    <g id="Group-13" transform="translate(620.000000, 131.000000)">
                        <path d="M153.985156,38.0829944 C154.909375,38.0829944 156.003125,38.0434568 157.267188,37.9621109 C158.532031,37.8808434 159.471094,37.6366494 160.086719,37.2303118 C160.817188,36.7597744 161.182031,35.8507995 161.182031,34.5004903 C161.182031,33.7050394 161.076563,33.0471483 160.866406,32.527365 C160.460938,31.6339703 159.504688,31.0414533 157.996094,30.7487963 C157.024219,30.5688803 155.686719,30.480175 153.985156,30.480175 L153.985156,38.0829944 Z M153.61875,44.7113865 L153.61875,60.233953 L146.349219,60.233953 L146.349219,23.6327991 L155.85625,23.6327991 C158.417969,23.6327991 160.347656,23.7788144 161.642969,24.0714714 C162.341406,24.2506828 162.948438,24.4531469 163.467188,24.6808213 C163.565625,24.7135475 163.835938,24.8559614 164.282031,25.1073583 C164.728125,25.359225 164.999219,25.5255181 165.097656,25.606081 C165.745313,26.1272735 166.296875,26.6547295 166.750781,27.1910325 C168.242188,29.1076307 168.9875,31.3989364 168.9875,34.0620528 C168.9875,34.5004903 168.971875,34.9493407 168.938281,35.4021057 C168.646875,38.6681519 167.366406,41.1216795 165.097656,42.7625318 C164.222656,43.3969352 163.292969,43.8432802 162.313281,44.1016452 C161.33125,44.3625938 160.290625,44.5327232 159.188281,44.614069 C158.345313,44.6633932 157.432813,44.6917351 156.453906,44.6991729 C155.471094,44.707785 154.528906,44.7113865 153.61875,44.7113865 L153.61875,44.7113865 Z" id="Fill-1"></path>
                        <polygon id="Fill-2" points="190.167969 30.4320252 190.167969 60.233953 182.557031 60.233953 182.557031 30.4320252 173.364844 30.4320252 174.896094 23.6327208 197.778125 23.6327208 199.310938 30.4320252"></polygon>
                        <path d="M82.5859375,48.3098623 C82.840625,48.947554 83.0328125,49.4974799 83.2765625,50.0218041 C83.9117187,51.3942701 84.7539062,52.5912045 86.2859375,53.0593148 C87.7375,53.5030762 89.2039062,53.6115112 90.659375,53.0321473 C92.0242187,52.4905987 92.8085937,51.5125699 93.0085937,50.034096 C93.2304687,48.3937134 92.5890625,47.1577112 91.2367187,46.3485591 C89.5367187,45.3311492 87.7679687,44.4291424 86.0203125,43.4930783 C83.984375,42.4016821 82.0875,41.1191741 80.3984375,39.5364147 C78.7875,38.0262324 77.9071875,36.1918412 77.7164844,33.9688065 C77.4964062,31.3990147 78.008125,29.0402993 79.56875,26.9889598 C81.9148437,23.9037691 85.0289062,22.3246895 88.9453125,22.4328896 C90.5914062,22.4781426 92.1976562,22.7107493 93.746875,23.2927751 C95.7851562,24.0603539 97.3085938,25.452393 98.528125,27.2166342 C99.1554687,28.1222425 99.146875,28.1216161 98.3289062,28.8430807 C97.0609375,29.9639931 95.8,31.0907775 94.5320312,32.2142736 C94.3835937,32.3465095 94.2257812,32.470603 94.0171875,32.6407324 C93.7320312,32.2635195 93.48125,31.9101076 93.2109375,31.5714929 C92.1859375,30.2914903 91.0382812,29.2071404 89.2625,29.1503784 C87.5976562,29.0965132 85.49375,30.1868133 85.3882812,32.2881033 C85.3335937,33.3893644 85.7914062,34.261855 86.6382812,34.850614 C88.0984375,35.8668494 89.6328125,36.7769987 91.13125,37.7377249 C93.03125,38.9573641 94.934375,40.1744979 96.825,41.4112831 C99.2515625,43.0016368 100.521875,45.2768926 100.771875,48.1570355 C101.040625,51.2549096 100.470312,54.1141484 98.321875,56.4764653 C96.6992187,58.259027 94.6734375,59.4231568 92.3507812,60.048948 C90.5648437,60.5342827 88.7539062,60.8173881 86.9007812,60.5613719 C82.3984375,59.9380077 79.0898437,57.6566451 77.180625,53.4686275 C77.1178906,53.3320855 77.1597656,53.0436563 77.2654687,52.951193 C78.9984375,51.4176795 80.7492187,49.903426 82.5859375,48.3098623" id="Fill-3"></path>
                        <path d="M16.1625781,43.3049416 C16.6754687,42.0615016 17.1826562,40.8175917 17.7030469,39.5770485 C19.9378125,34.238289 22.1721094,28.8981203 24.4269531,23.5680512 C24.5051562,23.3795231 24.789375,23.1580339 24.9800781,23.1556068 C27.241875,23.1284393 29.5060937,23.1386956 31.7703125,23.1411227 C31.8375781,23.1419056 31.9052344,23.1678204 32.1167969,23.2138564 C26.7842187,35.656008 21.4692969,48.0608924 16.1527344,60.4664815 C16.0977344,60.4729797 16.0436719,60.4804175 15.9894531,60.487777 C10.6680469,48.078978 5.34820312,35.6708835 0,23.1980413 C0.20875,23.1715785 0.339140625,23.1407312 0.46953125,23.1399483 C2.67960937,23.1375213 4.89140625,23.1480907 7.10234375,23.1297782 C7.48851562,23.125934 7.66289062,23.2853373 7.80179687,23.6155747 C10.2858594,29.5531146 12.7797656,35.487601 15.2665625,41.4237316 C15.5298437,42.0507755 15.768125,42.6876843 16.0165625,43.3180165 C16.0657812,43.3131623 16.115,43.3082299 16.1625781,43.3049416" id="Fill-4"></path>
                        <path d="M113.107031,45.3212844 C113.107031,40.4785856 113.096875,35.6362783 113.116406,30.795302 C113.11875,30.2336322 112.961719,30.1004568 112.464844,30.1053109 C109.975,30.1300513 107.484375,30.1177594 104.991406,30.1152541 C104.428906,30.1152541 104.374219,30.0511326 104.497656,29.4668363 C104.907812,27.4944156 105.315625,25.5211337 105.753125,23.557012 C105.792969,23.3889182 106.039844,23.258483 106.210937,23.1475427 C106.289062,23.0975921 106.417187,23.1394786 106.523437,23.1394786 C113.310937,23.1394786 120.100781,23.1456637 126.891406,23.1271867 C127.397656,23.1263254 127.626562,23.258483 127.734375,23.8288432 C128.092969,25.7336976 128.49375,27.6314273 128.917187,29.5218759 C129.0375,30.0635028 128.846094,30.1268414 128.425781,30.1226136 C125.953125,30.1103999 123.478906,30.1316955 121.005469,30.1028839 C120.474219,30.0980297 120.325,30.2607214 120.325,30.8371884 C120.339062,40.5031694 120.335937,50.1671931 120.335937,59.8337222 C120.335937,60.5786745 120.334375,60.5786745 119.641406,60.5786745 C117.677344,60.5786745 115.710937,60.5613719 113.746875,60.5916242 C113.251562,60.5984042 113.092187,60.4681256 113.094531,59.903559 C113.114844,55.042853 113.107031,50.1819904 113.107031,45.3212844" id="Fill-5"></path>
                        <path d="M82.5632812,11.9845325 C81.6664062,12.8498985 80.7859375,13.6918551 79.9132812,14.5404665 C79.5148437,14.9293449 79.1171875,15.3184582 78.7429687,15.7298848 C78.540625,15.9534879 78.4148437,15.9745486 78.1828125,15.7501626 C75.9283594,13.5722243 73.4599219,11.6654126 70.7065625,10.1688532 C69.2807812,9.39407148 67.7771875,8.75645809 66.2858594,8.1085101 C64.4128125,7.29364269 62.4377344,6.77573839 60.4329688,6.42639766 C57.5167969,5.91953259 54.5828906,5.57457623 51.6146094,5.90841507 C50.175,6.07032377 48.718125,6.1401606 47.3027344,6.41919475 C45.6764062,6.74050681 44.0584375,7.16383387 42.4888281,7.69160301 C38.9386719,8.88658008 35.6640625,10.6380596 32.706875,12.9458067 C31.6063281,13.8051442 30.5878125,14.7702547 29.540625,15.6955145 C29.351875,15.8617292 29.2171094,16.0269262 28.9673438,15.773572 C27.7175781,14.5104022 26.4575,13.2587415 25.2047656,12.0003475 C25.1817969,11.977721 25.1817969,11.9352083 25.1719531,11.9018557 C38.8722656,-2.58748588 65.3410937,-5.31973443 82.5632812,11.9845325" id="Fill-6"></path>
                        <path d="M33.3719531,20.0506081 C36.0135156,17.4632788 38.9829687,15.415071 42.3682812,13.9605546 C44.9350781,12.8578843 47.5900781,12.1163769 50.3570313,11.8046948 C53.3122656,11.4720304 56.2546094,11.558152 59.1888281,12.1108181 C64.8335156,13.1739508 69.6908594,15.7409241 73.8703906,19.6565624 C74.2504687,20.0130277 74.2566406,20.2372572 73.8814844,20.6006906 C72.7727344,21.6742361 71.6910156,22.7772196 70.6178906,23.8865448 C70.3329687,24.1803762 70.1484375,24.2235153 69.8385156,23.9069008 C68.1794531,22.2106957 66.249375,20.8794898 64.1253906,19.8474393 C61.6483594,18.6456508 59.0683594,17.7743345 56.2997656,17.5641977 C55.6399219,17.5135425 54.9798438,17.4094136 54.3208594,17.3964954 C51.6514844,17.343648 49.0576563,17.7599287 46.5157813,18.6074441 C43.5335156,19.6008965 40.8859375,21.1510862 38.5072656,23.1888028 C38.2088281,23.4456802 37.9541406,23.755405 37.6470312,24.0003819 C37.5510937,24.0767953 37.2821094,24.0912011 37.2082812,24.0164319 C35.9334375,22.7538102 34.6783594,21.4734161 33.41875,20.1939615 C33.3964844,20.1732923 33.3964844,20.129292 33.3719531,20.0506081" id="Fill-7"></path>
                        <path d="M53.8403125,40.7703031 C52.8242969,39.7373131 51.8971094,38.7946724 50.9700781,37.8524233 C50.655625,37.5335383 50.3533594,37.2011087 50.0236719,36.8991349 C49.7534375,36.6537665 49.7755469,36.4828541 50.0524219,36.2559627 C51.9040625,34.7384209 53.9510156,34.4857713 56.1357812,35.3651517 C56.6851562,35.5846053 57.1583594,36.0012775 57.664375,36.3286964 C57.9189844,36.492719 57.8735156,36.648834 57.6815625,36.8447999 C56.425625,38.1224538 55.1766406,39.4060579 53.8403125,40.7703031" id="Fill-8"></path>
                        <path d="M134.094531,60.2338747 C133.098437,59.2238243 132.192187,58.3009134 131.286719,57.3808993 C130.978906,57.0678079 130.684375,56.744382 130.360156,56.448515 C130.096875,56.2081573 130.11875,56.0409247 130.389844,55.8189657 C132.201562,54.3347765 134.202344,54.0870593 136.339062,54.9466316 C136.875781,55.1636582 137.336719,55.5700741 137.833594,55.8905249 C138.08125,56.0507112 138.039062,56.2036946 137.849219,56.3951195 C136.621875,57.6431006 135.4,58.8983628 134.094531,60.2338747" id="Fill-9"></path>
                        <path d="M70.0094531,30.7537287 C66.7803906,26.1669678 62.3257031,23.4347193 56.730625,22.6348057 C52.919375,22.0894208 49.2860156,22.6213394 45.7892188,24.2327538 C42.1070312,25.9304464 39.2473438,28.5290498 37.1575,31.9910619 C35.8572656,34.1447296 35.1089063,36.4853595 34.7767188,38.980382 C34.4380469,41.5371773 34.5511719,44.0322781 35.2077344,46.4220757 C35.8133594,44.139069 37.8889844,42.4558604 40.3585938,42.4558604 C41.1324219,42.4558604 41.8667188,42.6227016 42.5301563,42.9195081 C42.4654688,42.3458596 42.4383594,41.7639904 42.4453125,41.1730393 C42.4842969,39.1324259 42.9148438,37.1932795 43.9542969,35.4210525 C45.4075,32.9447418 47.5514844,31.2649781 50.1753906,30.2130413 C53.3138281,28.9531598 56.3764063,29.3456397 59.2971875,30.9247976 C62.2342969,32.5137421 64.1729688,34.9525507 65.0540625,38.1832087 C65.9853125,41.5991849 65.6339063,44.9091531 63.7010156,47.8841864 C61.1664844,51.7825222 57.5150781,53.8268936 52.8278906,53.3226122 C49.7473437,52.9911221 47.2735938,51.6638309 45.419375,49.4695295 C44.7185938,51.5989265 42.7180469,53.137294 40.3585938,53.137294 C39.6574219,53.137294 38.9895313,53.0005172 38.376875,52.7543658 C42.0561719,57.7848098 47.31,60.3202313 53.9945313,60.4754851 C54.3246094,60.4754851 54.6558594,60.4870724 54.9860156,60.473058 C60.188125,60.2527432 64.5780469,58.2194893 68.1633594,54.4629411 C70.7922656,51.7065002 72.4286719,48.4384967 73.0585156,44.6584608 C73.8994531,39.6058601 72.9415625,34.9171625 70.0094531,30.7537287" id="Fill-10"></path>
                        <path d="M43.9813281,47.9508133 C43.9813281,50.0982175 42.2448437,51.8384229 40.1023437,51.8384229 C37.9598437,51.8384229 36.2225781,50.0982175 36.2225781,47.9508133 C36.2225781,45.8032525 37.9598437,44.0626556 40.1023437,44.0626556 C42.2448437,44.0626556 43.9813281,45.8032525 43.9813281,47.9508133" id="Fill-11"></path>
                        <path d="M63.4594531,48.2458191 C60.9377344,51.9086512 57.3691406,53.8113134 52.8296094,53.3226122 C49.7489062,52.9911221 47.2751562,51.6638309 45.4201562,49.4695295 C44.7198437,51.5989265 42.7196094,53.137294 40.3589844,53.137294 C39.6591406,53.137294 38.9907031,53.0005172 38.378125,52.7543658 C42.0574219,57.7848098 47.3113281,60.3202313 53.9960937,60.4754851 C54.3257812,60.4754851 54.6575781,60.4870724 54.9871875,60.473058 C60.189375,60.2527432 64.5792187,58.2194893 68.1646875,54.4629411 C69.9221094,52.6204075 71.2342187,50.5469113 72.1002344,48.2458191 L63.4594531,48.2458191 Z" id="Fill-12"></path>
                    </g>
                </g>
            </g>
        </g>
    </g>
</svg>